<?xml version="1.0" standalone="no"?>
<!DOCTYPE svg PUBLIC "-//W3C//DTD SVG 20010904//EN"
 "http://www.w3.org/TR/2001/REC-SVG-20010904/DTD/svg10.dtd">
<svg version="1.0" xmlns="http://www.w3.org/2000/svg"
 width="373.000000pt" height="112.000000pt" viewBox="0 0 373.000000 112.000000"
 preserveAspectRatio="xMidYMid meet">

<g transform="translate(0.000000,112.000000) scale(0.100000,-0.100000)"
fill="#000000" stroke="none">
<path d="M0 670 l0 -449 24 -53 c38 -82 78 -119 157 -148 52 -19 84 -20 1011
-20 l958 0 0 560 0 560 -1075 0 -1075 0 0 -450z m1308 123 l3 -52 52 -3 52 -3
0 -40 0 -40 -53 -3 -53 -3 3 -107 3 -107 50 0 50 0 3 -42 c3 -38 1 -43 -23
-49 -14 -3 -51 -4 -81 -2 -43 4 -61 11 -82 32 -26 25 -27 31 -30 151 l-4 125
-34 0 c-34 0 -34 0 -34 45 0 45 0 45 35 45 l35 0 0 56 0 55 53 -3 52 -3 3 -52z
m-741 -63 c73 -33 83 -61 83 -232 l0 -148 -50 0 c-36 0 -50 4 -50 14 0 11 -8
10 -37 -5 -70 -36 -158 -16 -188 42 -22 41 -16 120 11 150 29 33 77 49 144 49
65 0 76 12 40 45 -15 14 -31 16 -77 12 -32 -3 -68 -8 -81 -12 -22 -7 -23 -6
-20 36 3 40 6 45 38 56 54 18 139 15 187 -7z m1174 6 c67 -28 119 -114 119
-196 0 -43 -28 -112 -58 -143 -73 -77 -209 -77 -285 0 -41 40 -52 79 -50 164
2 64 18 102 60 140 51 48 147 63 214 35z m-901 -131 c0 -122 2 -137 20 -155
27 -27 81 -26 106 1 16 18 19 40 22 155 l4 134 49 0 49 0 0 -147 c0 -175 -10
-201 -87 -235 -59 -26 -159 -22 -200 8 -61 46 -67 64 -71 209 -3 74 -2 141 2
150 4 11 20 15 56 15 l50 0 0 -135z"/>
<path d="M443 510 c-31 -13 -32 -65 -2 -81 17 -9 30 -7 60 7 32 14 39 22 39
44 0 37 -45 51 -97 30z"/>
<path d="M1613 645 c-48 -33 -54 -136 -12 -189 35 -45 105 -32 134 24 19 36
19 81 1 125 -23 53 -78 71 -123 40z"/>
<path d="M2200 560 l0 -560 765 0 765 0 0 560 0 560 -765 0 -765 0 0 -560z
m715 349 c33 -30 51 -40 67 -36 13 2 76 16 141 31 65 14 124 26 130 26 7 0
-37 -28 -98 -61 -60 -34 -112 -63 -115 -66 -3 -3 12 -19 33 -36 20 -18 37 -35
37 -38 0 -3 -40 1 -90 9 -71 12 -93 12 -104 2 -23 -18 -127 -80 -136 -80 -5 0
1 23 11 51 11 28 18 53 15 56 -2 2 -32 8 -66 13 -34 5 -64 11 -67 14 -3 2 13
9 36 15 23 6 59 16 80 21 38 10 40 13 52 65 7 30 16 55 21 55 5 0 29 -19 53
-41z m502 -216 c103 -146 151 -201 175 -205 22 -4 22 -5 -5 -16 -38 -16 -211
-61 -216 -56 -2 2 4 13 13 23 15 16 16 23 6 43 -26 50 -38 57 -77 45 -19 -6
-38 -17 -40 -25 -9 -23 16 -62 50 -77 36 -15 38 -13 -69 -44 -89 -26 -92 -26
-66 2 32 34 53 103 59 200 6 84 5 88 -15 94 -29 7 -28 19 1 27 13 3 41 21 62
40 22 19 45 35 50 36 6 0 38 -39 72 -87z m-337 -12 c0 -5 -7 -11 -15 -15 -22
-8 -18 -47 14 -168 34 -126 36 -128 64 -128 41 0 2 -18 -96 -44 -117 -31 -125
-31 -104 -8 22 24 21 50 -3 142 -29 116 -45 155 -63 155 -9 0 -17 4 -17 10 -1
5 43 21 97 36 111 31 123 33 123 20z m-315 -116 c31 -30 34 -84 6 -109 -10 -9
-40 -25 -66 -35 -59 -22 -37 -35 24 -14 39 13 45 13 53 -1 18 -31 63 -79 92
-97 21 -13 26 -20 15 -23 -30 -11 -138 -36 -152 -36 -9 0 -38 32 -67 70 -66
92 -85 86 -55 -18 12 -41 20 -52 36 -52 12 0 19 -5 17 -12 -5 -14 -196 -63
-206 -53 -4 3 0 10 7 15 16 10 6 77 -33 207 -19 63 -27 79 -45 81 -11 2 -21 7
-21 11 0 14 283 85 353 90 10 0 29 -10 42 -24z"/>
<path d="M3277 588 c-3 -24 -4 -44 -2 -46 2 -2 17 -1 34 3 l30 6 -26 40 c-14
21 -27 39 -28 39 -1 0 -5 -19 -8 -42z"/>
<path d="M2582 539 c-25 -10 -25 -27 -1 -106 10 -30 12 -31 41 -21 28 10 30
13 24 49 -8 48 -23 89 -33 88 -5 0 -18 -4 -31 -10z"/>
</g>
</svg>
